<svg xmlns="http://www.w3.org/2000/svg" viewBox="0 0 512 512">
  <rect width="512" height="512" rx="80" fill="#18181b"/>
  <svg x="96" y="36" width="320" height="440" viewBox="1440 280 510 740">
    <path fill="#065f46" stroke="#34d399" stroke-width="12"
      d="M1703.682,1012.395c-163.695,0-227.723-87.442-252.61-160.797c-27.344-80.593-24.767-136.8,9.192-200.472 c1.502-2.816,4.763-4.203,7.839-3.32c3.068,0.881,5.104,3.787,4.885,6.972c-1.354,19.602-3.04,43.996,7.348,62.679 c5.413,9.736,15.971,17.45,26.896,19.651c5.426,1.094,13.308,1.28,20.074-4.033c11.166-8.767,11.974-26.236,7.821-39.661 c-2.988-9.648-8.001-18.524-13.309-27.922c-3.075-5.445-6.255-11.076-9.027-16.903c-20.781-43.697-16.646-97.795,10.536-137.822 c1.563-2.302,4.379-3.414,7.089-2.799c2.714,0.613,4.776,2.824,5.199,5.574c3.054,19.876,6.854,44.614,21.192,61.236 c7.499,8.698,19.706,14.471,31.101,14.708c5.721,0.113,13.845-1.109,19.966-7.638c11.715-12.504,8.129-33.065,4.66-52.949 c-0.276-1.583-0.55-3.152-0.813-4.702c-6.919-40.751-2.327-83.633,13.28-124.01c15.563-40.261,40.943-75.126,73.396-100.827 c2.856-2.261,6.988-1.856,9.351,0.914c2.363,2.771,2.109,6.916-0.574,9.378c-17.65,16.194-21.548,54.721,0.78,86.263 c11.156,15.758,26.32,27.77,42.375,40.487c13.736,10.88,27.939,22.131,39.477,35.995c21.438,25.766,31.524,54.34,30.834,87.354 c-0.588,28.138-8.892,54.968-16.219,78.64c-13.308,42.998-19.042,66.019,6.932,78.559c0.099,0.048,0.195,0.097,0.291,0.149 c13.448,7.315,24.469,2.865,31.346-2.155c19.09-13.933,29.262-46.596,23.662-75.979c-0.581-3.051,0.988-6.105,3.808-7.41 c2.817-1.304,6.161-0.522,8.111,1.896c56.739,70.424,66.654,163.313,27.202,254.847v0c-16.139,37.438-39.085,66.755-68.201,87.136 C1802.535,999.96,1757.487,1012.395,1703.682,1012.395z M1458.695,686.873c-7.227,18.914-11.219,37.191-12.331,55.998 c-1.812,30.632,3.757,63.799,17.525,104.378c14.52,42.797,38.329,77.224,70.766,102.323 c42.265,32.705,99.134,49.288,169.026,49.288c50.976,0,93.41-11.612,126.128-34.513c27.408-19.186,48.19-45.813,63.533-81.405 c33.973-78.821,29.475-158.52-11.726-222.223c-1.289,26.763-12.653,52.025-30.648,65.159c-14.14,10.32-30.346,11.452-45.647,3.191 c-37.499-18.214-26.001-55.357-13.83-94.68c7.063-22.82,15.068-48.686,15.616-74.921c0.619-29.613-8.444-55.262-27.706-78.413 c-10.639-12.784-24.282-23.591-37.477-34.043c-16.096-12.75-32.74-25.935-45.018-43.276c-10.78-15.229-17.276-34.728-17.822-53.497 c-0.15-5.164,0.149-10.15,0.88-14.909c-17.885,20.08-32.275,43.707-42.338,69.737c-14.729,38.104-19.072,78.515-12.562,116.864 c0.26,1.53,0.53,3.079,0.803,4.641c3.851,22.076,8.216,47.097-8.118,64.531c-7.436,7.933-18.142,12.165-30.123,11.915 c-15.29-0.318-31.027-7.752-41.07-19.401c-12.239-14.188-17.772-32.217-21.154-49.289c-16.019,33.74-16.505,74.559-0.389,108.447 c2.568,5.398,5.63,10.819,8.591,16.062c5.424,9.605,11.033,19.538,14.453,30.576c5.522,17.855,3.832,41.57-12.393,54.309 c-8.448,6.632-19.498,8.995-31.107,6.655c-14.869-2.997-28.684-13.09-36.053-26.343 C1462.037,712.399,1459.465,699.548,1458.695,686.873z M1899.558,885.621h0.01H1899.558z"
    />
  </svg>
</svg>
